<?xml version="1.0" encoding="UTF-8"?>
<svg version="1.1" xmlns="http://www.w3.org/2000/svg" width="1254" height="1254">
<path d="M0 0 C413.82 0 827.64 0 1254 0 C1254 413.82 1254 827.64 1254 1254 C840.18 1254 426.36 1254 0 1254 C0 840.18 0 426.36 0 0 Z " fill="#FEFDFD" transform="translate(0,0)"/>
<path d="M0 0 C50.41806687 -1.4321228 106.07748193 3.56017575 151.625 26.6875 C152.64122437 27.20231934 152.64122437 27.20231934 153.67797852 27.72753906 C155.79108807 28.80763246 157.89708363 29.90020173 160 31 C160.99507568 31.52037842 160.99507568 31.52037842 162.01025391 32.05126953 C193.24269755 48.57339413 222.83835416 73.7547127 243.73779297 102.2890625 C245.04159958 104.05638875 246.37859038 105.79439123 247.72265625 107.53125 C268.46688791 134.63417452 281.23872818 165.97973877 289 199 C289.19722656 199.83080078 289.39445312 200.66160156 289.59765625 201.51757812 C295.13864472 225.36707747 296.73749572 250.2029214 297.55414295 274.6167717 C297.5962651 275.86842414 297.63838724 277.12007658 297.68178581 278.40965788 C298.09631923 291.65098333 298.14260233 304.88497964 298.13371277 318.13165283 C298.13558699 320.83490807 298.13785125 323.53816052 298.14057809 326.24141479 C298.14566736 332.05885572 298.14716077 337.87628836 298.14612198 343.69373131 C298.14458094 352.34546665 298.14879384 360.99719299 298.1539966 369.64892657 C298.16361085 386.00770718 298.16647858 402.36648463 298.16705366 418.72526774 C298.1675151 431.36540679 298.16958323 444.00554463 298.17275429 456.64568329 C298.17365196 460.2981325 298.17454178 463.95058171 298.17542917 467.60303092 C298.17565021 468.51129709 298.17587126 469.41956327 298.17609901 470.35535266 C298.18224313 495.86229965 298.18620058 521.36924623 298.18575573 546.876194 C298.18574015 547.8356208 298.18572457 548.7950476 298.18570852 549.78354794 C298.18562543 554.64517098 298.18552639 559.50679402 298.18542381 564.36841705 C298.1853939 565.81645423 298.1853939 565.81645423 298.18536337 567.29374467 C298.18532294 569.24592713 298.18528114 571.19810959 298.18523798 573.15029205 C298.18462531 603.51930756 298.19213456 633.8883119 298.20581055 664.25732422 C298.22120586 698.45752862 298.22977477 732.65772568 298.22884732 766.85793376 C298.22877271 770.51164039 298.22872399 774.16534702 298.22869301 777.81905365 C298.22867553 779.16828879 298.22867553 779.16828879 298.22865769 780.54478121 C298.22862706 794.95001769 298.23498217 809.35524437 298.24362527 823.76047795 C298.252145 838.26083981 298.25305808 852.76118752 298.24651595 867.26155052 C298.24316934 875.09958354 298.24292067 882.93758429 298.2518692 890.77561378 C298.31792852 951.57277728 298.31792852 951.57277728 296 978 C295.84958726 979.79700372 295.84958726 979.79700372 295.69613588 981.63031054 C292.64291479 1017.75982592 282.93858265 1052.91404114 266 1085 C265.65598145 1085.65613281 265.31196289 1086.31226563 264.95751953 1086.98828125 C248.90886858 1117.33482124 224.55811159 1146.41060629 197 1167 C196.484375 1167.38671875 195.96875 1167.7734375 195.4375 1168.171875 C178.14069232 1181.06289205 159.39047204 1192.88305433 139.1875 1200.625 C138.548125 1200.87282227 137.90875 1201.12064453 137.25 1201.37597656 C133.37775761 1202.77749713 130.09571564 1203.61853665 126 1203 C123.4921875 1201.12109375 123.4921875 1201.12109375 120.875 1198.4375 C107.9686522 1185.84385648 92.78261818 1175.85990779 77.44482422 1166.49462891 C74.91600719 1164.94865149 72.39650564 1163.38839085 69.87890625 1161.82421875 C62.85918533 1157.46507167 55.83474807 1153.11434564 48.77734375 1148.81640625 C26.95920903 1135.49059232 5.3978047 1121.35104798 -13.96484375 1104.59765625 C-16.69661074 1102.25965747 -19.48536385 1100.03291841 -22.3125 1097.8125 C-52.70909586 1073.02347527 -77.49704396 1037.69528939 -82 998 C-85.50566405 960.00618154 -67.75746745 924.7997204 -44.53515625 896.0234375 C-42.01793701 893.02139176 -39.42562015 890.23990737 -36.5859375 887.546875 C-34.90032877 885.90278373 -33.39676234 884.17142188 -31.875 882.375 C-28.59035373 878.57133514 -25.10826788 874.99547712 -21.5625 871.4375 C-21.0370459 870.90753418 -20.5115918 870.37756836 -19.97021484 869.83154297 C-16.44638505 866.32068831 -12.779232 863.02299374 -9.02026367 859.76635742 C9.42289451 843.6411309 28.88554969 826.13219328 43 806 C43.4213623 805.41234863 43.84272461 804.82469727 44.27685547 804.21923828 C50.45411944 795.56096089 55.58490988 786.61136848 60.07080078 776.97216797 C60.96237953 775.07984713 61.896144 773.21439815 62.83984375 771.34765625 C80.63338871 734.9506732 77.61853045 692.9994891 64.88671875 655.7421875 C58.76175776 640.10683254 50.28577706 625.24185753 40 612 C39.01966797 610.70449219 39.01966797 610.70449219 38.01953125 609.3828125 C14.19862042 578.63664718 -21.26453641 550.22727443 -58 537 C-59.66901641 536.33923798 -61.3356532 535.67243733 -63 535 C-64.17526245 534.53243286 -64.17526245 534.53243286 -65.37426758 534.05541992 C-67.00122116 533.40146173 -68.62369266 532.73607509 -70.23852539 532.05273438 C-76.83834501 529.29690452 -83.53346372 527.34051606 -90.4375 525.5 C-96.56052733 523.8617068 -102.60000027 522.208244 -108.53125 519.9609375 C-114.27337584 517.8146766 -120.08194109 516.43585158 -126.0625 515.125 C-127.17794189 514.87306885 -128.29338379 514.6211377 -129.44262695 514.36157227 C-134.12361024 513.30463947 -138.80823353 512.26437425 -143.49316406 511.22509766 C-156.24971556 508.38690027 -168.70538968 505.45328244 -181 501 C-185.4525672 499.48613757 -189.9218628 498.02351705 -194.39453125 496.5703125 C-203.09938842 493.73284985 -211.63315323 490.74073308 -220 487 C-221.09828125 486.52304687 -222.1965625 486.04609375 -223.328125 485.5546875 C-259.95428425 469.1442655 -295.20676041 443.69001123 -310 405 C-320.14517835 375.61129228 -316.11173163 348.71607814 -303 321 C-298.76575852 312.35947112 -293.86362734 304.61920439 -288 297 C-287.44699219 296.25363281 -286.89398437 295.50726563 -286.32421875 294.73828125 C-275.47073466 280.31014131 -262.24988537 267.02066233 -248 256 C-247.4858252 255.59346191 -246.97165039 255.18692383 -246.44189453 254.76806641 C-223.1031138 236.3928954 -195.75892405 223.79273701 -168.8125 211.6875 C-147.59193663 202.15380156 -126.25138597 192.15777912 -107 179 C-106.11948975 178.40010254 -106.11948975 178.40010254 -105.22119141 177.78808594 C-88.53710374 166.32656692 -71.84748183 153.77284741 -59 138 C-58.30648438 137.17113281 -57.61296875 136.34226563 -56.8984375 135.48828125 C-44.54500101 120.60897029 -34.66662763 105.25262954 -25.6875 88.1875 C-25.18371826 87.23319092 -24.67993652 86.27888184 -24.16088867 85.2956543 C-21.05778845 79.31906357 -18.35836568 73.30639896 -16 67 C-15.67749268 66.14220947 -15.35498535 65.28441895 -15.02270508 64.40063477 C-7.18009824 43.19554429 -2.47625395 22.45897575 0 0 Z " fill="#FEFDFD" transform="translate(940,17)"/>
<path d="M0 0 C413.82 0 827.64 0 1254 0 C1254 413.82 1254 827.64 1254 1254 C840.18 1254 426.36 1254 0 1254 C0 840.18 0 426.36 0 0 Z M254.5 19.25 C253.31913818 19.37640869 252.13827637 19.50281738 250.92163086 19.63305664 C233.37897911 21.62677814 215.83097044 24.58409367 199 30 C197.7728125 30.35578125 196.545625 30.7115625 195.28125 31.078125 C166.1235129 39.58609157 138.15736075 54.31994262 115 74 C114.00742188 74.80953125 113.01484375 75.6190625 111.9921875 76.453125 C97.46351357 88.43449404 83.26354491 101.86392 72 117 C71.13965163 118.12004424 70.27895005 119.23981722 69.41796875 120.359375 C59.01742069 134.04933043 50.23014425 148.6545601 42.86572266 164.18310547 C42.05641924 165.88159279 41.22245527 167.56826819 40.38671875 169.25390625 C32.26330871 186.02549443 28.07255935 203.90400517 24 222 C23.83371094 222.71220703 23.66742187 223.42441406 23.49609375 224.15820312 C15.13306748 259.98359946 15.84142723 298.25992568 15.86628723 334.81880188 C15.86441289 337.48819468 15.86214856 340.15758466 15.85942191 342.82697648 C15.8543336 348.57061833 15.85283906 354.31425178 15.85387802 360.05789566 C15.85541937 368.60026752 15.8512054 377.14263026 15.8460034 385.68500033 C15.8363892 401.8393774 15.83352139 417.99375127 15.83294634 434.14813087 C15.83248477 446.63470099 15.830416 459.12126987 15.82724571 471.60783958 C15.82634801 475.21692902 15.8254582 478.82601845 15.82457083 482.43510789 C15.82434979 483.33262651 15.82412874 484.23014514 15.82390099 485.1548613 C15.81775652 510.36172368 15.81379944 535.56858563 15.81424427 560.7754488 C15.81425985 561.72361905 15.81427543 562.67178929 15.81429148 563.64869197 C15.81437457 568.45316343 15.81447361 573.25763489 15.81457619 578.06210635 C15.81459613 579.0160955 15.81461608 579.97008466 15.81463663 580.95298258 C15.81467706 582.88217687 15.81471886 584.81137116 15.81476202 586.74056545 C15.81537432 616.73370539 15.80787244 646.726834 15.79418945 676.7199707 C15.77878137 710.5074967 15.77022605 744.29501526 15.77115268 778.08254498 C15.77122729 781.69509232 15.77127601 785.30763966 15.77130699 788.920187 C15.77131865 789.80952308 15.7713303 790.69885916 15.77134231 791.61514482 C15.77137289 805.83675161 15.76502702 820.05834846 15.75637473 834.27995231 C15.74783885 848.60792337 15.74695424 862.93588011 15.75348405 877.26385234 C15.75682244 885.00351476 15.75710743 892.74314452 15.7481308 900.48280334 C15.6508519 939.17806039 15.6508519 939.17806039 16.8901825 977.8478241 C16.92904707 978.62237111 16.96791164 979.39691812 17.00795392 980.19493625 C17.81666873 995.67070997 19.38162338 1011.0757765 22.25 1026.3125 C22.57206421 1028.03025635 22.57206421 1028.03025635 22.90063477 1029.78271484 C30.93011581 1071.14705683 48.38736215 1109.31461165 75 1142 C75.43715332 1142.54011719 75.87430664 1143.08023437 76.32470703 1143.63671875 C87.81806275 1157.72932212 100.5992733 1170.8732064 115 1182 C115.77988281 1182.64710937 116.55976562 1183.29421875 117.36328125 1183.9609375 C136.01186906 1199.40477618 158.17922972 1211.70291583 180.875 1220.0625 C181.89605835 1220.44027588 181.89605835 1220.44027588 182.93774414 1220.82568359 C194.73045501 1225.13824172 206.71457953 1228.43929795 219 1231 C220.21719727 1231.25547607 220.21719727 1231.25547607 221.45898438 1231.51611328 C240.87570689 1235.45804912 260.60848201 1236.57436133 280.34305358 1237.814255 C282.10146054 1237.93718382 283.85856133 1238.08067918 285.61352849 1238.24559379 C298.16407399 1239.34146068 310.73978462 1239.14528983 323.32733154 1239.14044189 C326.0178997 1239.14302839 328.70846493 1239.14600402 331.39903188 1239.1494453 C338.00131291 1239.15698616 344.60358584 1239.15921636 351.20587073 1239.15977435 C359.1216955 1239.160692 367.03751288 1239.16737176 374.95333445 1239.17412117 C394.09083176 1239.19014968 413.22832824 1239.19608275 432.36583106 1239.20086992 C441.43863939 1239.20321098 450.5114471 1239.20681439 459.58425495 1239.2105653 C490.70179274 1239.22340361 521.81933019 1239.23411813 552.93687057 1239.2375679 C554.88901037 1239.23778953 556.84115017 1239.23801131 558.79328997 1239.23823325 C560.74992574 1239.23845389 562.70656151 1239.23867437 564.66319728 1239.2388947 C568.58796485 1239.23933723 572.51273243 1239.23978435 576.4375 1239.24023438 C577.41060813 1239.24034377 578.38371626 1239.24045316 579.38631252 1239.24056586 C610.85746212 1239.24418715 642.32858854 1239.26007055 673.79972928 1239.28342474 C707.14691261 1239.30812532 740.49408273 1239.32174565 773.84127545 1239.32293582 C777.51602253 1239.32310724 781.19076959 1239.32332266 784.86551666 1239.32357025 C785.77020752 1239.32362602 786.67489838 1239.32368179 787.60700412 1239.32373925 C802.05527591 1239.32488144 816.50352362 1239.33583269 830.95178733 1239.35045731 C845.53381272 1239.36495956 860.11580788 1239.36798326 874.69783852 1239.36001733 C882.57029373 1239.35600387 890.44267596 1239.3565002 898.3151207 1239.37107468 C933.97221778 1239.43433087 969.42801291 1238.70680763 1005 1236 C1002.50350135 1233.46076251 1000.17751615 1231.2971718 997.15625 1229.40625 C996.04491699 1228.70665161 996.04491699 1228.70665161 994.91113281 1227.99291992 C993.71762207 1227.25392456 993.71762207 1227.25392456 992.5 1226.5 C991.66049805 1225.97446533 990.82099609 1225.44893066 989.95605469 1224.9074707 C984.09920559 1221.25700613 978.18365205 1217.71118194 972.25 1214.1875 C961.81903365 1207.98719605 951.67384983 1201.37408464 941.55322266 1194.68212891 C939.35996488 1193.23715414 937.15823816 1191.80740597 934.94921875 1190.38671875 C915.97702282 1178.10550763 898.11080912 1163.86341875 881.58544922 1148.46777344 C879.93319954 1146.93815763 878.26720623 1145.42476578 876.59765625 1143.9140625 C870.68083652 1138.54572149 865.10338947 1133.16195279 860 1127 C859.18273437 1126.07058594 858.36546875 1125.14117188 857.5234375 1124.18359375 C846.71711337 1111.8467768 837.7766087 1098.4232828 830 1084 C829.12601563 1082.44539063 829.12601563 1082.44539063 828.234375 1080.859375 C822.78111203 1070.68977649 819.28705621 1059.91761339 815.90917969 1048.91455078 C815.11241686 1046.36037391 814.25752925 1043.83671175 813.3828125 1041.30859375 C801.3633691 1003.97991587 812.51062475 958.32574436 829.6015625 924.5078125 C839.87120894 904.90828117 852.73526839 886.99522206 868 871 C869.1124421 869.71545363 870.21742328 868.42438208 871.3125 867.125 C874.69017003 863.23333671 878.30329246 859.58751053 881.9375 855.9375 C882.51089111 855.3595166 883.08428223 854.7815332 883.67504883 854.18603516 C887.3195048 850.55445712 891.09422328 847.12816612 894.98413086 843.76196289 C917.04896546 824.47627665 937.72830346 804.12343803 953 779 C953.55429687 778.13503906 954.10859375 777.27007813 954.6796875 776.37890625 C966.7842279 756.27784305 969.81612891 728.11344832 964.40478516 705.56689453 C962.76831305 699.62019164 960.74003696 694.2587674 957.89697266 688.77954102 C956.84760175 686.69765084 956.06964933 684.57834462 955.3125 682.375 C950.42527071 670.00538478 941.71438848 659.83924278 933 650 C932.27554688 649.15308594 931.55109375 648.30617188 930.8046875 647.43359375 C926.53359836 642.48415516 922.04416299 638.15067196 917 634 C916.24468994 633.36022217 916.24468994 633.36022217 915.47412109 632.70751953 C905.59996266 624.35334483 895.2252544 617.40973901 884 611 C883.00154053 610.42741455 883.00154053 610.42741455 881.98291016 609.84326172 C872.94758444 604.71251194 863.72895349 600.64432622 854 597 C853.06571167 596.63745117 853.06571167 596.63745117 852.11254883 596.26757812 C846.99785392 594.29926297 841.8185227 592.67161758 836.5625 591.125 C835.69359131 590.8674292 834.82468262 590.6098584 833.92944336 590.34448242 C832.14730645 589.81658018 830.36483659 589.2898006 828.58203125 588.76416016 C826.17723794 588.05245412 823.77566066 587.3309717 821.375 586.60546875 C813.90680477 584.35984015 806.46517776 582.30645344 798.83203125 580.67578125 C796 580 796 580 793.38671875 579.04296875 C790.32497528 578.10007889 787.49778018 577.56327283 784.33984375 577.078125 C778.23848353 576.11153565 772.46382767 574.55164528 766.5625 572.75 C764.47026069 572.12430202 762.37780822 571.49931643 760.28515625 570.875 C759.24117676 570.56175781 758.19719727 570.24851562 757.12158203 569.92578125 C751.41662964 568.23383854 745.68476975 566.63474301 739.95141602 565.04199219 C734.85532071 563.60461879 729.93107525 561.92420202 725 560 C723.66178517 559.49652625 722.32323681 558.99393822 720.984375 558.4921875 C676.70632866 541.67185642 634.60101311 517.72499377 606 479 C605.57041992 478.42008301 605.14083984 477.84016602 604.69824219 477.24267578 C582.06122214 446.21479726 571.34987502 406.24011736 576.87109375 368.12109375 C582.54396243 334.80928098 596.5997453 304.18384104 618 278 C618.42587402 277.4740625 618.85174805 276.948125 619.29052734 276.40625 C633.20891243 259.35487146 649.08602987 242.84562736 667 230 C668.11049197 229.17337343 669.21984854 228.3452196 670.328125 227.515625 C697.40734816 207.45636436 728.47894369 193.37447355 758.99560547 179.42236328 C787.63223168 166.31017307 813.39578791 151.00601663 837 130 C837.67804687 129.39671875 838.35609375 128.7934375 839.0546875 128.171875 C860.75894456 107.60994726 882.2413518 73.06918563 886 43 C886.33 42.67 886.66 42.34 887 42 C887.40724276 39.69625444 887.74981872 37.38097379 888.0625 35.0625 C888.23910156 33.79535156 888.41570313 32.52820312 888.59765625 31.22265625 C888.96373962 28.04588291 889.04212261 24.93336362 889.02514648 21.73608398 C889.0197007 20.4010508 889.0197007 20.4010508 889.0141449 19.03904724 C889.00947708 18.36616165 889.00480927 17.69327606 889 17 C832.84629894 16.98286669 776.69259762 16.96694804 720.53889465 16.95765686 C719.70664783 16.9575188 718.87440101 16.95738075 718.01693459 16.95723851 C699.9261823 16.95424499 681.83542998 16.9514749 663.74467761 16.94893467 C654.87185864 16.94768743 645.99903967 16.94639086 637.1262207 16.94506836 C636.24330948 16.9449376 635.36039826 16.94480684 634.45073215 16.94467212 C605.87788215 16.9404174 577.30503415 16.93291105 548.73218536 16.92370278 C519.34852277 16.91425049 489.96486128 16.90811 460.5811972 16.90608501 C456.42267 16.90579689 452.26414281 16.90547126 448.10561562 16.90512276 C447.2872278 16.90505533 446.46883999 16.90498791 445.62565254 16.90491844 C432.49802013 16.90374073 419.37039113 16.89911353 406.2427601 16.89316797 C393.01712304 16.88725266 379.79148933 16.885039 366.565851 16.88649862 C358.72640069 16.88725417 350.88696276 16.88527693 343.04751472 16.87920246 C337.16383257 16.8749586 331.28015872 16.87606668 325.39647559 16.87910111 C323.03800242 16.87951896 320.67952817 16.87829173 318.3210571 16.87511682 C297.06205131 16.84819601 275.65406371 16.92692748 254.5 19.25 Z M940 17 C939.93530518 17.58676514 939.87061035 18.17353027 939.80395508 18.77807617 C936.5587223 47.4726194 930.11226644 76.66226415 916.01367188 102.13867188 C914.94047129 104.10930802 913.92760964 106.10352435 912.921875 108.109375 C904.81694406 124.13863588 894.95243668 138.60796714 883 152 C881.74921238 153.43681474 880.49910438 154.87422169 879.25 156.3125 C878.70730469 156.92609375 878.16460938 157.5396875 877.60546875 158.171875 C876.49049933 159.44147521 875.38986264 160.72374914 874.30078125 162.015625 C870.20685795 166.83633468 865.87430943 170.97713244 861 175 C860.01 175.83917969 859.02 176.67835938 858 177.54296875 C829.09725223 201.65850328 795.29611037 217.93261899 761.26806641 233.44458008 C728.6755589 248.33350757 698.91646234 265.07208676 673 290 C672.50338867 290.47469727 672.00677734 290.94939453 671.49511719 291.43847656 C665.1046906 297.57447343 659.3140646 303.91458053 654 311 C652.84757813 312.485 652.84757813 312.485 651.671875 314 C637.87237293 332.18103579 628.84481267 352.55460712 625 375 C624.81566406 375.96292969 624.63132812 376.92585938 624.44140625 377.91796875 C620.89052487 402.71129093 629.71508455 428.79474549 644.31835938 448.80664062 C647.35618177 452.71241228 650.62555447 456.3840871 654 460 C654.81339844 460.88300781 655.62679687 461.76601563 656.46484375 462.67578125 C674.94021174 481.92968987 700.8785351 497.37460433 726 506 C727.6497821 506.65683393 729.29579661 507.32322694 730.9375 508 C739.41037562 511.40846951 748.05357546 514.37195848 756.72094727 517.2434082 C758.174665 517.72600823 759.62712325 518.21243054 761.07788086 518.70385742 C776.17911182 523.80857512 791.5706146 527.28337458 807.12988281 530.68408203 C809.12645653 531.12073212 811.12248725 531.55987378 813.11791992 532.00170898 C814.92119581 532.40033773 816.7259393 532.79242003 818.5324707 533.17602539 C823.89464687 534.35928278 828.89805308 536.01413952 834.03393555 537.94726562 C840.73900178 540.32707018 847.66630175 542.04988286 854.52929688 543.91210938 C862.29945521 546.07309142 869.62833172 548.73397955 877 552 C878.22857478 552.52222797 879.45765481 553.04327091 880.6875 553.5625 C882.3271875 554.2740625 882.3271875 554.2740625 884 555 C884.95410767 555.40798828 884.95410767 555.40798828 885.92749023 555.82421875 C907.33127249 565.12232189 927.34082518 577.76412801 945 593 C946.15140912 593.96856009 947.30381721 594.9359334 948.45703125 595.90234375 C959.02815474 604.8001771 968.49823644 614.05920591 977 625 C977.43602539 625.55961426 977.87205078 626.11922852 978.32128906 626.69580078 C985.4989139 635.97773994 991.62039081 645.57327315 997 656 C997.47928955 656.9276416 997.47928955 656.9276416 997.96826172 657.87402344 C1017.4932396 696.27076509 1019.48301111 738.0481581 1007 779 C1005.39837641 783.54006049 1003.2500697 787.74986834 1001 792 C1000.39304835 793.26565886 999.79180421 794.53406548 999.1953125 795.8046875 C987.89739631 819.62767752 970.76510847 838.30372365 952.3125 856.8125 C951.81531464 857.3123642 951.31812927 857.81222839 950.80587769 858.32723999 C945.64933964 863.50480389 940.4574152 868.59106976 934.90600586 873.34790039 C931.38467712 876.40013961 928.01246267 879.61335887 924.625 882.8125 C923.88330566 883.51246094 923.14161133 884.21242188 922.37744141 884.93359375 C914.2266442 892.64847187 906.25063061 900.41982945 899 909 C898.24074219 909.87011719 897.48148438 910.74023438 896.69921875 911.63671875 C878.78821208 932.50039526 865.92972982 956.11665759 860 983 C859.6596875 984.34384766 859.6596875 984.34384766 859.3125 985.71484375 C852.82593677 1014.2286946 862.41390837 1045.17067195 877.5703125 1069.27734375 C889.36375631 1087.50148272 904.09633443 1104.23401094 921.15234375 1117.70703125 C923.19889041 1119.35493645 925.17081182 1121.01553671 927.12890625 1122.76171875 C935.70512275 1130.39218706 944.78424332 1136.89664344 954.34716797 1143.234375 C957.09904916 1145.06592339 959.83365474 1146.9212967 962.56640625 1148.78125 C973.25062387 1156.02213595 984.0723278 1162.96554927 995.125 1169.625 C996.01067657 1170.15880783 996.01067657 1170.15880783 996.91424561 1170.70339966 C998.09843338 1171.4170142 999.28263736 1172.13060183 1000.46685791 1172.84416199 C1023.40096323 1186.66605226 1046.93917413 1200.93917413 1066 1220 C1072.40811742 1220.34546933 1078.25047132 1218.04640143 1084 1215.5 C1084.82395264 1215.14107666 1085.64790527 1214.78215332 1086.49682617 1214.41235352 C1108.31849264 1204.75173082 1128.2323749 1191.96652338 1146 1176 C1146.59208252 1175.49114258 1147.18416504 1174.98228516 1147.79418945 1174.45800781 C1160.17167158 1163.811438 1172.21031023 1152.0970174 1182 1139 C1182.86190416 1137.87884859 1183.72388867 1136.75775894 1184.5859375 1135.63671875 C1194.98639599 1121.94281237 1203.71624262 1107.35023871 1211.11010742 1091.83544922 C1212.04655276 1089.90398254 1213.03133089 1088.00121654 1214.015625 1086.09375 C1216.12321372 1081.88060349 1217.76793617 1077.57177557 1219.3125 1073.125 C1219.60737305 1072.27856934 1219.90224609 1071.43213867 1220.20605469 1070.56005859 C1224.06288279 1059.20792381 1227.05568767 1047.61572106 1230 1036 C1230.33 1034.74058594 1230.66 1033.48117187 1231 1032.18359375 C1240.79657249 991.41556554 1238.29678696 947.12277972 1238.24927953 905.50710458 C1238.24068707 897.60992733 1238.24405653 889.71276483 1238.2476195 881.8155853 C1238.25385402 867.24170789 1238.25076967 852.66784679 1238.24202538 838.09397125 C1238.23337288 823.66899718 1238.22850611 809.24403044 1238.22869301 794.81905365 C1238.22870065 793.91747353 1238.2287083 793.01589342 1238.22871618 792.08699269 C1238.22875709 788.42620158 1238.22882272 784.76541046 1238.22892199 781.10461935 C1238.22982567 746.84643042 1238.21991971 712.58825261 1238.20449232 678.33006754 C1238.1908664 647.96044055 1238.18463137 617.59082143 1238.18530273 587.22119141 C1238.18534315 585.27026662 1238.18538351 583.31934184 1238.18542381 581.36841705 C1238.18544416 580.40386899 1238.18546452 579.43932093 1238.18548548 578.44554413 C1238.18558629 573.58909409 1238.18567687 568.73264405 1238.18575573 563.876194 C1238.1857808 562.43871579 1238.1857808 562.43871579 1238.18580638 560.97219761 C1238.18617233 535.51580811 1238.18162458 510.0594196 1238.17542917 484.60303092 C1238.17509876 483.24308101 1238.17509876 483.24308101 1238.17476168 481.85565736 C1238.17387357 478.21074298 1238.17298513 474.56582861 1238.17207072 470.92091424 C1238.16892361 458.2936177 1238.16740313 445.66632193 1238.16695923 433.03902502 C1238.16635966 416.76147734 1238.16231637 400.48393612 1238.15252777 384.20639119 C1238.14745106 375.61845309 1238.14499045 367.03052445 1238.14652396 358.44258493 C1238.14726714 352.68225914 1238.14429074 346.92194245 1238.13848015 341.16161958 C1238.13528053 337.89594683 1238.13404922 334.630297 1238.13624074 331.36462286 C1238.15040349 307.60437771 1237.82395265 283.80242569 1235.6875 260.125 C1235.62375183 259.39916718 1235.56000366 258.67333435 1235.49432373 257.92550659 C1230.8493106 205.64109701 1213.96613461 157.13977018 1181 116 C1179.86111328 114.55173828 1179.86111328 114.55173828 1178.69921875 113.07421875 C1172.57287811 105.54087164 1165.84144047 98.63099551 1159 91.75 C1158.08637695 90.82711182 1157.17275391 89.90422363 1156.23144531 88.95336914 C1137.00524964 69.81481523 1114.45382919 54.59919353 1090 43 C1089.0821875 42.55140625 1088.164375 42.1028125 1087.21875 41.640625 C1084.50571557 40.35109629 1081.77139748 39.15920744 1079 38 C1078.3901123 37.74395996 1077.78022461 37.48791992 1077.15185547 37.22412109 C1034.85215277 19.78146898 985.45179793 15.70894383 940 17 Z " fill="#FDFDFD" transform="translate(0,0)"/>
<path d="M0 0 C16.17 0 32.34 0 49 0 C49 12.62958402 48.97242054 22.22969217 46 34 C45.82839355 34.7105957 45.65678711 35.42119141 45.47998047 36.15332031 C41.13292295 54.13980496 35.86747672 71.71585998 27.04589844 88.04199219 C25.96949414 90.05710947 24.93841432 92.09079149 23.9140625 94.1328125 C15.80159021 110.15050414 5.94700797 124.61176567 -6 138 C-7.22986537 139.41606013 -8.45912629 140.83264572 -9.6875 142.25 C-10.22890625 142.86230469 -10.7703125 143.47460938 -11.328125 144.10546875 C-12.53607158 145.47428672 -13.73259948 146.85321038 -14.921875 148.23828125 C-19.30369243 153.29095832 -23.83897904 157.75369658 -29 162 C-30.48306641 163.25683594 -30.48306641 163.25683594 -31.99609375 164.5390625 C-60.89748981 188.65830316 -94.70295981 204.93219513 -128.73193359 220.44458008 C-161.33486393 235.33826893 -191.0626955 252.08351431 -217 277 C-217.90878906 277.86753906 -218.81757812 278.73507812 -219.75390625 279.62890625 C-225.33763369 285.07623729 -230.30874355 290.77179859 -235 297 C-235.76957031 297.99128906 -236.53914062 298.98257812 -237.33203125 300.00390625 C-251.1278759 318.1862205 -260.15532469 338.55540902 -264 361 C-264.18433594 361.96292969 -264.36867188 362.92585938 -264.55859375 363.91796875 C-268.10744785 388.69713585 -259.29687393 414.83782277 -244.66552734 434.82275391 C-241.62477391 438.72024043 -238.35969387 442.37584043 -235 446 C-234.26007813 446.80953125 -233.52015625 447.6190625 -232.7578125 448.453125 C-214.66114233 467.41154137 -188.62474445 482.54515212 -164 491 C-162.3502179 491.65683393 -160.70420339 492.32322694 -159.0625 493 C-150.58962438 496.40846951 -141.94642454 499.37195848 -133.27905273 502.2434082 C-131.825335 502.72600823 -130.37287675 503.21243054 -128.92211914 503.70385742 C-113.82088818 508.80857512 -98.4293854 512.28337458 -82.87011719 515.68408203 C-80.87354347 516.12073212 -78.87751275 516.55987378 -76.88208008 517.00170898 C-75.07880419 517.40033773 -73.2740607 517.79242003 -71.4675293 518.17602539 C-66.10535313 519.35928278 -61.10194692 521.01413952 -55.96606445 522.94726562 C-49.26099822 525.32707018 -42.33369825 527.04988286 -35.47070312 528.91210938 C-27.70054479 531.07309142 -20.37166828 533.73397955 -13 537 C-11.77142522 537.52222797 -10.54234519 538.04327091 -9.3125 538.5625 C-7.6728125 539.2740625 -7.6728125 539.2740625 -6 540 C-5.04589233 540.40798828 -5.04589233 540.40798828 -4.07250977 540.82421875 C17.33238987 550.1228073 37.33842064 562.76559675 55 578 C56.13964517 578.95689734 57.28033671 579.91254936 58.421875 580.8671875 C69.34860196 590.04941005 79.23819904 599.68692588 88 611 C88.4345752 611.55816406 88.86915039 612.11632812 89.31689453 612.69140625 C96.49631595 621.97492098 102.61929516 631.57114957 108 642 C108.47928955 642.9276416 108.47928955 642.9276416 108.96826172 643.87402344 C128.4932396 682.27076509 130.48301111 724.0481581 118 765 C116.39837641 769.54006049 114.2500697 773.74986834 112 778 C111.39304835 779.26565886 110.79180421 780.53406548 110.1953125 781.8046875 C99.14833637 805.09854078 82.48339464 823.72184853 64.35571289 841.7746582 C62.79910611 843.32584727 61.24799829 844.88239392 59.69726562 846.43945312 C54.89740241 851.24260421 50.054795 855.94346678 44.89282227 860.36108398 C41.35238036 863.42660527 37.96624581 866.65944764 34.5625 869.875 C33.81822754 870.57753906 33.07395508 871.28007813 32.30712891 872.00390625 C24.51354618 879.37994518 16.94166737 886.80941339 10 895 C9.23945312 895.87140625 8.47890625 896.7428125 7.6953125 897.640625 C-10.21263587 918.50533743 -23.07045546 942.11749759 -29 969 C-29.3403125 970.34384766 -29.3403125 970.34384766 -29.6875 971.71484375 C-36.17406323 1000.2286946 -26.58609163 1031.17067195 -11.4296875 1055.27734375 C0.12168798 1073.12742007 14.42944883 1089.45480563 31.1171875 1102.671875 C33.17509598 1104.33381735 35.16146894 1106.00769294 37.1328125 1107.765625 C45.7080684 1115.39426174 54.78584146 1121.8977026 64.34716797 1128.234375 C67.09904916 1130.06592339 69.83365474 1131.9212967 72.56640625 1133.78125 C83.25062387 1141.02213595 94.0723278 1147.96554927 105.125 1154.625 C106.01067657 1155.15880783 106.01067657 1155.15880783 106.91424561 1155.70339966 C108.09843338 1156.4170142 109.28263736 1157.13060183 110.46685791 1157.84416199 C131.71822901 1170.65190467 152.36777034 1183.93282723 171.01953125 1200.37890625 C173.11347369 1202.22036809 175.21307063 1203.97579818 177.38671875 1205.71484375 C178.24910156 1206.46894531 179.11148437 1207.22304687 180 1208 C180 1208.66 180 1209.32 180 1210 C164.58432524 1217.09358813 147.31896694 1220.12398367 130.64453125 1222.60400391 C128.88110531 1222.86806196 127.12260012 1223.16736435 125.37109375 1223.50146484 C119.80333066 1224.39795109 116.74171217 1223.99142943 112.14575195 1220.6862793 C111.47890381 1220.17105713 110.81205566 1219.65583496 110.125 1219.125 C108.56315687 1218.00273673 106.9964052 1216.88728484 105.42578125 1215.77734375 C104.56936035 1215.16874512 103.71293945 1214.56014648 102.83056641 1213.93310547 C98.053535 1210.67068226 93.08155647 1207.72925055 88.1164856 1204.7651062 C75.68681892 1197.34027647 63.49093005 1189.60559252 51.42431641 1181.6015625 C49.28532804 1180.18849466 47.13664582 1178.79287316 44.98046875 1177.40625 C25.99276304 1165.11815638 8.11389418 1150.86641055 -8.42333984 1135.45898438 C-10.04863147 1133.95499819 -11.68830037 1132.46817273 -13.33203125 1130.984375 C-19.96393375 1124.97848711 -26.1969703 1118.82963644 -32 1112 C-32.70253906 1111.1853125 -33.40507813 1110.370625 -34.12890625 1109.53125 C-44.44062469 1097.28262559 -53.45666181 1084.11705339 -61 1070 C-61.58136719 1068.96488281 -62.16273438 1067.92976563 -62.76171875 1066.86328125 C-68.22014241 1056.69466728 -71.71257036 1045.91882981 -75.09082031 1034.91455078 C-75.88758314 1032.36037391 -76.74247075 1029.83671175 -77.6171875 1027.30859375 C-89.6366309 989.97991587 -78.48937525 944.32574436 -61.3984375 910.5078125 C-51.12864135 890.90799544 -38.26427888 872.99595506 -23 857 C-21.90850795 855.73616711 -20.82439741 854.46589692 -19.75 853.1875 C-16.19984621 849.09579733 -12.38351998 845.27394994 -8.5625 841.4375 C-7.94149414 840.81190186 -7.32048828 840.18630371 -6.68066406 839.54174805 C-2.91271427 835.78613439 0.9731405 832.2273686 4.99731445 828.7487793 C26.73198588 809.76969221 46.96538627 789.73341357 62 765 C62.55429687 764.13503906 63.10859375 763.27007813 63.6796875 762.37890625 C75.7842279 742.27784305 78.81612891 714.11344832 73.40478516 691.56689453 C71.76831305 685.62019164 69.74003696 680.2587674 66.89697266 674.77954102 C65.84760175 672.69765084 65.06964933 670.57834462 64.3125 668.375 C59.4220616 655.9972625 50.70409877 645.85669632 42 636 C41.34902344 635.2265625 40.69804688 634.453125 40.02734375 633.65625 C36.04615385 628.94048975 31.75561768 624.92527174 27 621 C26.24251465 620.35804688 26.24251465 620.35804688 25.46972656 619.703125 C15.59711755 611.35070273 5.22321157 604.40857253 -6 598 C-6.99845947 597.42741455 -6.99845947 597.42741455 -8.01708984 596.84326172 C-17.05241556 591.71251194 -26.27104651 587.64432622 -36 584 C-36.93428833 583.63745117 -36.93428833 583.63745117 -37.88745117 583.26757812 C-43.00214608 581.29926297 -48.1814773 579.67161758 -53.4375 578.125 C-54.30640869 577.8674292 -55.17531738 577.6098584 -56.07055664 577.34448242 C-57.85269355 576.81658018 -59.63516341 576.2898006 -61.41796875 575.76416016 C-63.82276206 575.05245412 -66.22433934 574.3309717 -68.625 573.60546875 C-76.09319523 571.35984015 -83.53482224 569.30645344 -91.16796875 567.67578125 C-94 567 -94 567 -96.61328125 566.04296875 C-99.67502472 565.10007889 -102.50221982 564.56327283 -105.66015625 564.078125 C-111.76151647 563.11153565 -117.53617233 561.55164528 -123.4375 559.75 C-125.52973931 559.12430202 -127.62219178 558.49931643 -129.71484375 557.875 C-131.28081299 557.40513672 -131.28081299 557.40513672 -132.87841797 556.92578125 C-138.58337036 555.23383854 -144.31523025 553.63474301 -150.04858398 552.04199219 C-155.14467929 550.60461879 -160.06892475 548.92420202 -165 547 C-166.33821483 546.49652625 -167.67676319 545.99393822 -169.015625 545.4921875 C-213.73887421 528.50273288 -256.16707653 504.160979 -285 465 C-285.42812988 464.4215332 -285.85625977 463.84306641 -286.29736328 463.24707031 C-308.93739802 432.21828858 -319.65053825 392.24297059 -314.12890625 354.12109375 C-308.45546213 320.80590196 -294.39776319 290.18884484 -273 264 C-272.36916504 263.21906982 -272.36916504 263.21906982 -271.72558594 262.42236328 C-257.58729543 245.05696477 -241.25801799 228.03500914 -223 215 C-221.89060726 214.1749488 -220.78256 213.34808572 -219.67578125 212.51953125 C-192.59908721 192.45508647 -161.52163911 178.37474001 -131.00439453 164.42236328 C-75.29007156 138.91178829 -31.04820496 103.93123199 -9 45 C-7.07845877 39.62339031 -5.70810887 34.66487093 -5 29 C-4.67 28.67 -4.34 28.34 -4 28 C-3.62985776 25.93348217 -3.31640959 23.85675284 -3.02734375 21.77734375 C-2.86741943 20.64288818 -2.70749512 19.50843262 -2.54272461 18.33959961 C-2.34300049 16.88690674 -2.14327637 15.43421387 -1.9375 13.9375 C-1.298125 9.338125 -0.65875 4.73875 0 0 Z " fill="#FDC920" transform="translate(890,14)"/>
<path d="M0 0 C2.50691453 -0.00043679 5.01382901 -0.00131367 7.52074325 -0.00258917 C12.94239763 -0.00435035 18.36403744 -0.00304588 23.78569031 0.00104904 C31.84730193 0.00712083 39.90890669 0.00738146 47.97052019 0.00650705 C61.53592268 0.00519752 75.10132028 0.0085179 88.66672134 0.01452446 C102.08813628 0.02045197 115.50954918 0.02429252 128.93096542 0.02537727 C130.18513964 0.02548038 130.18513964 0.02548038 131.4646507 0.02558558 C135.71127657 0.02592393 139.95790244 0.02622531 144.20452832 0.02651245 C174.2429515 0.02860998 204.28137202 0.03533926 234.3197937 0.04481506 C263.4923196 0.05400706 292.66484477 0.06108696 321.83737183 0.06532288 C322.73741413 0.0654544 323.63745643 0.06558593 324.56477273 0.06572144 C333.60379313 0.06704002 342.64281353 0.06831582 351.68183393 0.0695603 C370.09353304 0.07209616 388.50523211 0.07491741 406.91693115 0.07791138 C407.76337524 0.07804867 408.60981933 0.07818596 409.48191324 0.07832741 C465.95635758 0.08752004 522.43080042 0.10338517 578.90524292 0.12025452 C578.90524292 3.09025452 578.90524292 6.06025452 578.90524292 9.12025452 C578.57524292 9.12025452 578.24524292 9.12025452 577.90524292 9.12025452 C577.90524292 7.14025452 577.90524292 5.16025452 577.90524292 3.12025452 C521.75153694 3.19859558 465.59783267 3.278096 409.44413757 3.36392212 C408.61189075 3.3651938 407.77964393 3.36646548 406.92217751 3.3677757 C388.83142485 3.39542565 370.74067253 3.42328885 352.64992053 3.45137146 C343.77710163 3.4651436 334.90428264 3.47886866 326.03146362 3.49256897 C324.70709679 3.4946151 324.70709679 3.4946151 323.35597507 3.49670256 C294.78312957 3.54082511 266.21028065 3.58184409 237.63742828 3.62123864 C208.25375992 3.6617676 178.87009789 3.70545756 149.48644012 3.75307563 C145.32791298 3.75981332 141.16938577 3.7665152 137.01085854 3.77319527 C136.19247072 3.77451099 135.37408291 3.77582672 134.53089546 3.77718232 C121.4032676 3.79819588 108.2756373 3.81591702 95.14800302 3.83237983 C81.92236008 3.84903679 68.69672615 3.86922684 55.47109392 3.89292293 C47.63164918 3.90686406 39.79221131 3.91819681 31.95275764 3.92561889 C26.06906893 3.93149016 20.1853964 3.94246967 14.30171851 3.95528782 C11.94324818 3.95966383 9.58477422 3.96246968 7.22630002 3.96341651 C-14.03187458 3.97357096 -35.4417645 4.04729963 -56.59475708 6.37025452 C-57.7756189 6.49666321 -58.95648071 6.6230719 -60.17312622 6.75331116 C-77.71577797 8.74703265 -95.26378664 11.70434819 -112.09475708 17.12025452 C-113.32194458 17.47603577 -114.54913208 17.83181702 -115.81350708 18.19837952 C-144.96904257 26.70570368 -172.94136084 41.43802135 -196.09475708 61.12025452 C-197.09893677 61.94138733 -198.10311646 62.76252014 -199.13772583 63.60853577 C-213.31182607 75.32082954 -227.06611003 88.36571319 -238.09475708 103.12025452 C-238.95666124 104.24140593 -239.81864575 105.36249558 -240.68069458 106.48353577 C-251.07827281 120.17364982 -259.86528242 134.77622651 -267.22903442 150.30335999 C-268.03833784 152.00184731 -268.87230181 153.6885227 -269.70803833 155.37416077 C-277.83144837 172.14574895 -282.02219773 190.02425969 -286.09475708 208.12025452 C-286.26104614 208.83246155 -286.42733521 209.54466858 -286.59866333 210.27845764 C-294.9616896 246.10385398 -294.25332985 284.3801802 -294.22846985 320.9390564 C-294.23034419 323.6084492 -294.23260852 326.27783918 -294.23533517 328.94723099 C-294.24042348 334.69087284 -294.24191802 340.43450629 -294.24087906 346.17815018 C-294.23933771 354.72052204 -294.24355168 363.26288478 -294.24875368 371.80525485 C-294.25836788 387.95963192 -294.26123569 404.11400579 -294.26181074 420.26838539 C-294.26227231 432.7549555 -294.26434108 445.24152439 -294.26751137 457.7280941 C-294.26840907 461.33718353 -294.26929888 464.94627297 -294.27018625 468.5553624 C-294.27040729 469.45288103 -294.27062834 470.35039965 -294.27085609 471.27511581 C-294.27700056 496.4819782 -294.28095764 521.68884015 -294.28051281 546.89570332 C-294.28048944 548.31795869 -294.28048944 548.31795869 -294.2804656 549.76894649 C-294.28038251 554.57341795 -294.28028347 559.37788941 -294.28018089 564.18236087 C-294.28016095 565.13635002 -294.280141 566.09033918 -294.28012045 567.07323709 C-294.28008002 569.00243138 -294.28003822 570.93162567 -294.27999506 572.86081996 C-294.27938276 602.8539599 -294.28688464 632.84708852 -294.30056763 662.84022522 C-294.31597571 696.62775121 -294.32453103 730.41526977 -294.3236044 764.2027995 C-294.32352979 767.81534684 -294.32348107 771.42789417 -294.32345009 775.04044151 C-294.32343843 775.92977759 -294.32342678 776.81911367 -294.32341477 777.73539933 C-294.32338419 791.95700613 -294.32973006 806.17860297 -294.33838235 820.40020682 C-294.34691823 834.72817789 -294.34780284 849.05613463 -294.34127303 863.38410685 C-294.33793464 871.12376927 -294.33764965 878.86339904 -294.34662628 886.60305786 C-294.44390518 925.29831491 -294.44390518 925.29831491 -293.20457458 963.96807861 C-293.16571001 964.74262562 -293.12684544 965.51717264 -293.08680316 966.31519077 C-292.27808835 981.79096449 -290.7131337 997.19603102 -287.84475708 1012.43275452 C-287.63004761 1013.57792542 -287.41533813 1014.72309631 -287.19412231 1015.90296936 C-279.16624204 1057.25906488 -261.71403148 1095.4474701 -235.09475708 1128.12025452 C-234.65228638 1128.66568909 -234.20981567 1129.21112366 -233.75393677 1129.77308655 C-222.52062552 1143.51192493 -210.1261591 1156.23382192 -196.09475708 1167.12025452 C-195.31358521 1167.76865295 -194.53241333 1168.41705139 -193.72756958 1169.08509827 C-175.0770631 1184.52527167 -152.91508833 1196.82333205 -130.21975708 1205.18275452 C-129.19869873 1205.5605304 -129.19869873 1205.5605304 -128.15701294 1205.94593811 C-116.36430207 1210.25849624 -104.38017755 1213.55955247 -92.09475708 1216.12025452 C-90.87755981 1216.37573059 -90.87755981 1216.37573059 -89.63577271 1216.6363678 C-70.21900109 1220.5783136 -50.48593664 1221.69506515 -30.75125664 1222.93448323 C-28.99432613 1223.05734688 -27.23870802 1223.2008992 -25.48525029 1223.36608487 C-12.89579238 1224.46724072 -0.27961052 1224.26224846 12.3469696 1224.25396729 C15.04965345 1224.25583705 17.75233442 1224.25809884 20.45501727 1224.26083261 C26.31768637 1224.26596506 32.18034722 1224.26740757 38.04301834 1224.2663765 C46.76224753 1224.26484683 55.48146764 1224.26902393 64.20069506 1224.27425112 C80.68652618 1224.28390854 97.17235417 1224.28673482 113.65818778 1224.28730818 C126.40023025 1224.28776842 139.14227151 1224.28983042 151.88431358 1224.2930088 C155.55755748 1224.29390642 159.23080138 1224.29479624 162.90404528 1224.29568368 C163.81735894 1224.29590473 164.7306726 1224.29612578 165.67166243 1224.29635352 C191.35541497 1224.30250607 217.0391671 1224.30645429 242.72292042 1224.30601025 C243.69078603 1224.30599467 244.65865165 1224.30597909 245.65584653 1224.30596304 C250.56088162 1224.30587994 255.46591672 1224.3057809 260.37095181 1224.30567833 C261.34502384 1224.30565839 262.31909587 1224.30563844 263.32268524 1224.30561789 C265.29249996 1224.30557745 267.26231468 1224.30553565 269.2321294 1224.3054925 C299.84037578 1224.30488052 330.44861105 1224.31237271 361.05685425 1224.32606506 C395.48657831 1224.34146076 429.91629507 1224.3500291 464.34602278 1224.34910184 C468.02523943 1224.34902722 471.70445607 1224.34897851 475.38367271 1224.34894753 C476.28950977 1224.34893587 477.19534682 1224.34892422 478.12863348 1224.34891221 C492.64348479 1224.34888156 507.15832639 1224.35524064 521.67317482 1224.36387979 C536.29298914 1224.37240065 550.91278941 1224.37331188 565.53260485 1224.36677047 C573.43736729 1224.36342337 581.34209774 1224.36317317 589.24685669 1224.37212372 C631.6108064 1224.48201411 631.6108064 1224.48201411 673.90477598 1222.31436884 C681.22711798 1221.84065208 688.57314617 1221.94818445 695.90524292 1222.12025452 C696.23524292 1222.78025452 696.56524292 1223.44025452 696.90524292 1224.12025452 C694.30185403 1224.44062376 691.69779388 1224.75140574 689.09274292 1225.05775452 C688.39342651 1225.14476624 687.69411011 1225.23177795 686.97360229 1225.32142639 C669.19697002 1227.38137949 651.29459012 1227.2704344 633.42800144 1227.26112479 C629.87506109 1227.26038346 626.32212772 1227.26544022 622.76919049 1227.26969981 C615.74660765 1227.27722233 608.72403243 1227.27946992 601.70144598 1227.28002887 C593.27940768 1227.28094824 584.85737628 1227.28763258 576.43534098 1227.29437569 C556.08866916 1227.31037881 535.74199814 1227.31633235 515.39532116 1227.32112444 C505.75722799 1227.32346597 496.11913541 1227.3270692 486.48104269 1227.33081982 C453.44409271 1227.34364989 420.40714304 1227.35436983 387.37019062 1227.35782242 C385.29927369 1227.35804405 383.22835677 1227.35826583 381.15743984 1227.35848777 C379.08173262 1227.3587084 377.0060254 1227.35892889 374.93031818 1227.35914922 C370.76660494 1227.35959175 366.6028917 1227.36003887 362.43917847 1227.36048889 C361.40683224 1227.36059828 360.37448601 1227.36070767 359.31085656 1227.36082038 C325.85573627 1227.364449 292.40063768 1227.38036451 258.94552569 1227.40367926 C223.51678532 1227.42832397 188.08805733 1227.44199739 152.65930814 1227.44319034 C148.7636526 1227.44336177 144.86799707 1227.44357719 140.97234154 1227.44382477 C139.53366927 1227.44390842 139.53366927 1227.44390842 138.06593293 1227.44399376 C122.69105747 1227.4451401 107.31620445 1227.45612625 91.94133655 1227.47071182 C76.46294709 1227.48514076 60.98458612 1227.48827791 45.50619177 1227.48027185 C36.33459445 1227.47584574 27.16308968 1227.47955381 17.99150469 1227.49551035 C11.8378068 1227.50536901 5.68417267 1227.50398024 -0.46952484 1227.49407412 C-3.95770669 1227.48875917 -7.4457129 1227.48771429 -10.9338791 1227.50058284 C-49.19684263 1227.61486939 -88.9342657 1224.50965561 -125.09475708 1211.12025452 C-126.0794397 1210.76108948 -126.0794397 1210.76108948 -127.08401489 1210.39466858 C-138.14471657 1206.33692576 -148.69930229 1201.65947636 -159.09475708 1196.12025452 C-159.73590454 1195.78300354 -160.377052 1195.44575256 -161.03762817 1195.09828186 C-177.94905362 1186.14767312 -193.38704794 1175.3668567 -207.54983521 1162.50941467 C-210.26491734 1160.06807185 -213.07466321 1157.73583218 -215.87210083 1155.38978577 C-217.09475708 1154.12025452 -217.09475708 1154.12025452 -217.09475708 1152.12025452 C-217.75475708 1152.12025452 -218.41475708 1152.12025452 -219.09475708 1152.12025452 C-220.57522583 1150.61634827 -220.57522583 1150.61634827 -222.28225708 1148.55775452 C-224.53730456 1145.89522412 -226.80614177 1143.38705833 -229.34475708 1140.99525452 C-242.87448478 1127.6471339 -253.7191785 1110.5512363 -263.09475708 1094.12025452 C-263.43216919 1093.537276 -263.7695813 1092.95429749 -264.11721802 1092.35365295 C-287.64244276 1051.43123762 -297.3027972 1001.48702531 -297.22618484 954.66059113 C-297.22823748 953.47143789 -297.23029011 952.28228466 -297.23240495 951.05709648 C-297.23705603 947.78236014 -297.23731029 944.50765903 -297.23562736 941.23292097 C-297.23489065 937.65991352 -297.23993229 934.0869132 -297.24420238 930.51390886 C-297.25175159 923.43848212 -297.25397387 916.36306294 -297.25453143 909.28763259 C-297.25544818 900.80693987 -297.26212512 892.32625406 -297.26887826 883.84556433 C-297.28491217 863.34681497 -297.29083948 842.84806637 -297.295627 822.34931186 C-297.29796652 812.63922867 -297.30156965 802.92914606 -297.30532238 793.21906332 C-297.3181583 759.93980767 -297.32887529 726.66055233 -297.33232498 693.38129425 C-297.33254661 691.29341675 -297.33276839 689.20553925 -297.33299033 687.11766174 C-297.33321097 685.02489791 -297.33343145 682.93213408 -297.33365178 680.83937025 C-297.33409432 676.64133167 -297.33454144 672.44329309 -297.33499146 668.24525452 C-297.33510085 667.20439055 -297.33521024 666.16352659 -297.33532294 665.09112129 C-297.33894854 631.38834262 -297.35484955 597.68558553 -297.37818182 563.98281511 C-297.40283947 528.29985855 -297.41650066 492.61691431 -297.4176929 456.93394899 C-297.41786433 453.0080595 -297.41807975 449.08217001 -297.41832733 445.15628052 C-297.4183831 444.18970804 -297.41843887 443.22313556 -297.41849633 442.227273 C-297.41964191 426.743335 -297.43062209 411.25941932 -297.44521439 395.77548883 C-297.45966059 380.17529825 -297.46277101 364.57513593 -297.45477441 348.97494048 C-297.45074068 340.54108068 -297.45136887 332.10728921 -297.46583176 323.67343903 C-297.57548988 256.61532891 -297.29941058 186.95999857 -260.09475708 128.12025452 C-259.57510376 127.29686584 -259.05545044 126.47347717 -258.52005005 125.62513733 C-252.11937695 115.57920507 -245.52682288 105.88881528 -237.61428833 96.97181702 C-235.13896903 94.17029284 -232.80037519 91.29258395 -230.46975708 88.37025452 C-224.64457479 81.22635894 -218.16446817 74.9009291 -211.16506958 68.91712952 C-209.71959394 67.66256575 -208.29933426 66.37861473 -206.89944458 65.07337952 C-185.17612851 44.85563981 -156.31817354 26.53032502 -127.83303833 17.97181702 C-125.59438057 17.27562958 -123.44163726 16.50535597 -121.25491333 15.66712952 C-83.05252088 1.19958026 -40.37264476 -0.05269707 0 0 Z " fill="#E7E7E7" transform="translate(311.0947570800781,13.879745483398438)"/>
<path d="M0 0 C53.19200912 -0.71665881 107.73295136 3.61521567 156 28 C156.66032227 28.32693848 157.32064453 28.65387695 158.00097656 28.99072266 C174.9591064 37.42177022 190.42018985 47.94353752 205 60 C205.5770166 60.47405273 206.1540332 60.94810547 206.74853516 61.43652344 C218.44135657 71.08866221 229.40577016 81.35403508 238.828125 93.26953125 C241.1280999 96.16104646 243.52883739 98.94862066 245.9375 101.75 C277.17579687 139.26492529 293.6385987 187.1930315 298.88037109 235.21459961 C299.12162445 237.406827 299.3785743 239.59681519 299.63671875 241.78710938 C302.18120554 264.18359461 302.14774401 286.73778494 302.12698364 309.24942017 C302.12758495 312.01409682 302.12968828 314.77877192 302.13171089 317.54344785 C302.13528828 323.50721736 302.13523443 329.47097779 302.13266373 335.4347477 C302.12885132 344.30359795 302.13083035 353.17244067 302.13387203 362.0412909 C302.13911553 377.88861914 302.13869033 393.73594334 302.13579312 409.58327197 C302.1332705 423.45088429 302.13262415 437.31849513 302.13381577 451.18610764 C302.13393034 452.56972209 302.13393034 452.56972209 302.13404724 453.98128835 C302.13435861 457.7262947 302.13467701 461.47130104 302.135007 465.21630738 C302.13806095 500.29424086 302.13530048 535.37217177 302.1299101 570.45010485 C302.12516427 601.57025356 302.12559038 632.69039819 302.13037109 663.81054688 C302.13573298 698.83025722 302.13784509 733.8499653 302.13475883 768.86967599 C302.13443814 772.60695863 302.1341253 776.34424126 302.13381577 780.0815239 C302.13373669 781.00163833 302.13365761 781.92175276 302.13357614 782.86974945 C302.13244173 796.72525621 302.13376318 810.58076132 302.13629532 824.43626785 C302.13916179 840.19914317 302.13842437 855.96201383 302.13301457 871.72488858 C302.13009124 880.53178304 302.12986777 889.33866739 302.13366075 898.14556157 C302.13591977 904.04446134 302.13447786 909.94335309 302.13015598 915.84225167 C302.1278006 919.19213871 302.12747836 922.54198966 302.13056196 925.89187844 C302.14889741 947.48095058 301.80470622 968.9812466 299.25 990.4375 C299.16352203 991.17803619 299.07704407 991.91857239 298.98794556 992.68154907 C292.58308636 1046.98128641 272.09683973 1098.30940393 235 1139 C234.1646875 1139.92570801 234.1646875 1139.92570801 233.3125 1140.87011719 C221.52850371 1153.89695683 209.01328938 1165.41287588 195 1176 C194.45682129 1176.41604492 193.91364258 1176.83208984 193.35400391 1177.26074219 C175.60083532 1190.79156454 152.95898234 1205.16525821 131 1210 C130.01 1208.68 129.02 1207.36 128 1206 C128.7528125 1205.79246094 129.505625 1205.58492187 130.28125 1205.37109375 C158.91468242 1197.06600838 184.85387164 1180.71795312 207 1161 C207.90335083 1160.22366211 207.90335083 1160.22366211 208.82495117 1159.43164062 C220.85487909 1149.07068162 232.45538582 1137.7140781 242 1125 C242.41233887 1124.46407227 242.82467773 1123.92814453 243.24951172 1123.37597656 C254.1867005 1109.15165455 263.3928109 1094.02890613 271.11010742 1077.83544922 C272.04655276 1075.90398254 273.03133089 1074.00121654 274.015625 1072.09375 C276.12321372 1067.88060349 277.76793617 1063.57177557 279.3125 1059.125 C279.60737305 1058.27856934 279.90224609 1057.43213867 280.20605469 1056.56005859 C284.06288279 1045.20792381 287.05568767 1033.61572106 290 1022 C290.33 1020.74058594 290.66 1019.48117187 291 1018.18359375 C300.79657249 977.41556554 298.29678696 933.12277972 298.24927953 891.50710458 C298.24068707 883.60992733 298.24405653 875.71276483 298.2476195 867.8155853 C298.25385402 853.24170789 298.25076967 838.66784679 298.24202538 824.09397125 C298.23337288 809.66899718 298.22850611 795.24403044 298.22869301 780.81905365 C298.22870065 779.91747353 298.2287083 779.01589342 298.22871618 778.08699269 C298.22875709 774.42620158 298.22882272 770.76541046 298.22892199 767.10461935 C298.22982567 732.84643042 298.21991971 698.58825261 298.20449232 664.33006754 C298.1908664 633.96044055 298.18463137 603.59082143 298.18530273 573.22119141 C298.18534315 571.27026662 298.18538351 569.31934184 298.18542381 567.36841705 C298.18544416 566.40386899 298.18546452 565.43932093 298.18548548 564.44554413 C298.18558629 559.58909409 298.18567687 554.73264405 298.18575573 549.876194 C298.18577244 548.91787519 298.18578916 547.95955638 298.18580638 546.97219761 C298.18617233 521.51580811 298.18162458 496.0594196 298.17542917 470.60303092 C298.17520889 469.69639764 298.17498862 468.78976437 298.17476168 467.85565736 C298.17387357 464.21074298 298.17298513 460.56582861 298.17207072 456.92091424 C298.16892361 444.2936177 298.16740313 431.66632193 298.16695923 419.03902502 C298.16635966 402.76147734 298.16231637 386.48393612 298.15252777 370.20639119 C298.14745106 361.61845309 298.14499045 353.03052445 298.14652396 344.44258493 C298.14726714 338.68225914 298.14429074 332.92194245 298.13848015 327.16161958 C298.13528053 323.89594683 298.13404922 320.630297 298.13624074 317.36462286 C298.15040349 293.60437771 297.82395265 269.80242569 295.6875 246.125 C295.62375183 245.39916718 295.56000366 244.67333435 295.49432373 243.92550659 C290.85040084 191.65336872 273.97574898 143.12300205 241 102 C240.22914063 101.02289063 239.45828125 100.04578125 238.6640625 99.0390625 C232.68618262 91.70343072 226.1676825 84.96168393 219.5 78.25 C218.6339917 77.37472656 217.7679834 76.49945313 216.87573242 75.59765625 C197.78430306 56.5978485 175.27376319 41.51378276 151 30 C149.62328125 29.32710937 149.62328125 29.32710937 148.21875 28.640625 C145.50571557 27.35109629 142.77139748 26.15920744 140 25 C139.3901123 24.74395996 138.78022461 24.48791992 138.15185547 24.22412109 C95.20384119 6.51413204 46.91709561 4.2693954 1 3 C1 5.97 1 8.94 1 12 C0.67 12 0.34 12 0 12 C0 8.04 0 4.08 0 0 Z " fill="#E8E8E8" transform="translate(939,14)"/>
<path d="M0 0 C0 0.66 0 1.32 0 2 C-19.05198889 10.7668535 -41.26529244 14.19185489 -62 16 C-62.66 15.01 -63.32 14.02 -64 13 C-63.09572266 12.8548999 -62.19144531 12.7097998 -61.25976562 12.56030273 C-45.0256028 9.92009138 -29.03146611 7.24940166 -13.33789062 2.18530273 C-8.73756662 0.7100178 -4.90535922 -0.40607278 0 0 Z " fill="#EBBB1E" transform="translate(1070,1222)"/>
<path d="M0 0 C16.17 0 32.34 0 49 0 C49 0.99 49 1.98 49 3 C33.16 3 17.32 3 1 3 C0.67 2.01 0.34 1.02 0 0 Z " fill="#EFBF1F" transform="translate(890,14)"/>
<path d="M0 0 C0.99 0.66 1.98 1.32 3 2 C2.278125 2.556875 1.55625 3.11375 0.8125 3.6875 C-3.90020939 7.56239439 -7.80411299 11.8706189 -11.5703125 16.64453125 C-13 18 -13 18 -16 18 C-16 18.66 -16 19.32 -16 20 C-18.375 21.6875 -18.375 21.6875 -21 23 C-21.66 22.67 -22.32 22.34 -23 22 C-22.51644043 21.5467334 -22.03288086 21.0934668 -21.53466797 20.62646484 C-19.31382304 18.54365952 -17.09440353 16.45934115 -14.875 14.375 C-14.11445312 13.66214844 -13.35390625 12.94929687 -12.5703125 12.21484375 C-8.30830414 8.21002555 -4.10912981 4.16164265 0 0 Z " fill="#FCCD31" transform="translate(920,819)"/>
<path d="M0 0 C0.75 1.6875 0.75 1.6875 1 4 C-1.91787253 8.82083288 -6.47313271 11.80262529 -11 15 C-11.66 14.67 -12.32 14.34 -13 14 C-12.22914063 13.24074219 -11.45828125 12.48148438 -10.6640625 11.69921875 C-9.65090904 10.69544634 -8.63789552 9.69153268 -7.625 8.6875 C-7.11710938 8.18798828 -6.60921875 7.68847656 -6.0859375 7.17382812 C-3.77145867 4.87457613 -1.81652517 2.72478775 0 0 Z " fill="#FBCF3B" transform="translate(934,804)"/>
<path d="M0 0 C0 0.66 0 1.32 0 2 C-1.6210103 2.69685498 -3.24696066 3.38222861 -4.875 4.0625 C-5.77992187 4.44535156 -6.68484375 4.82820313 -7.6171875 5.22265625 C-10 6 -10 6 -12 5 C-7.81374099 0.67419902 -6.05150555 -0.13155447 0 0 Z " fill="#E9BC26" transform="translate(1070,1222)"/>
<path d="M0 0 C2.93879484 1.35236577 5.29232911 2.89942659 7.75 5 C8.67039062 5.7734375 8.67039062 5.7734375 9.609375 6.5625 C11 8 11 8 11 10 C8.06120516 8.64763423 5.70767089 7.10057341 3.25 5 C2.63640625 4.484375 2.0228125 3.96875 1.390625 3.4375 C0 2 0 2 0 0 Z " fill="#FCCD2C" transform="translate(886,1152)"/>
<path d="M0 0 C3.465 1.98 3.465 1.98 7 4 C7 4.99 7 5.98 7 7 C3.63408134 5.55746343 1.48952921 3.66735273 -1 1 C-0.67 0.67 -0.34 0.34 0 0 Z " fill="#FCCB2F" transform="translate(930,581)"/>
<path d="M0 0 C0.33 0 0.66 0 1 0 C1.125 5.75 1.125 5.75 0 8 C-0.99 8 -1.98 8 -3 8 C-1.125 2.25 -1.125 2.25 0 0 Z " fill="#FDD036" transform="translate(595,311)"/>
<path d="M0 0 C0.66 0.99 1.32 1.98 2 3 C0.68 4.32 -0.64 5.64 -2 7 C-2.33 6.01 -2.66 5.02 -3 4 C-1.5625 1.8125 -1.5625 1.8125 0 0 Z " fill="#FDCC32" transform="translate(644,321)"/>
</svg>
